<?xml version="1.0" encoding="UTF-8"?>
<svg width="445px" height="445px" viewBox="0 0 445 445" version="1.1" xmlns="http://www.w3.org/2000/svg" xmlns:xlink="http://www.w3.org/1999/xlink">
    <!-- Generator: Sketch 63.1 (92452) - https://sketch.com -->
    <title>Group 3</title>
    <desc>Created with Sketch.</desc>
    <g id="Page-1" stroke="none" stroke-width="1" fill="none" fill-rule="evenodd">
        <g id="Group-3" stroke="#979797">
            <g id="Group-2" transform="translate(0.000000, 188.000000)" fill="#B4B8CB">
                <path d="M225.674647,0.577144483 L118.000614,60.5332789 L223.325353,123.422856 L330.999386,63.4667211 L225.674647,0.577144483 Z" id="Rectangle"></path>
                <path d="M338.890516,68.5776674 L229.997902,129.432329 L335.109484,192.422333 L444.002098,131.567671 L338.890516,68.5776674 Z" id="Rectangle"></path>
                <path d="M109.890516,64.5776674 L0.997901815,125.432329 L106.109484,188.422333 L215.002098,127.567671 L109.890516,64.5776674 Z" id="Rectangle"></path>
                <path d="M221.674647,133.577144 L114.000614,193.533279 L219.325353,256.422856 L326.999386,196.466721 L221.674647,133.577144 Z" id="Rectangle"></path>
            </g>
            <g id="Group" fill="#0A307A">
                <path d="M225.674647,0.577144483 L118.000614,60.5332789 L223.325353,123.422856 L330.999386,63.4667211 L225.674647,0.577144483 Z" id="Rectangle"></path>
                <path d="M338.890516,67.5776674 L229.997902,128.432329 L335.109484,191.422333 L444.002098,130.567671 L338.890516,67.5776674 Z" id="Rectangle"></path>
                <path d="M109.890516,64.5776674 L0.997901815,125.432329 L106.109484,188.422333 L215.002098,127.567671 L109.890516,64.5776674 Z" id="Rectangle"></path>
                <path d="M221.674647,133.577144 L114.000614,193.533279 L219.325353,256.422856 L326.999386,196.466721 L221.674647,133.577144 Z" id="Rectangle"></path>
            </g>
        </g>
    </g>
</svg>